<?xml version="1.0" encoding="utf-8"?>
<!-- Generator: Adobe Illustrator 16.0.0, SVG Export Plug-In . SVG Version: 6.00 Build 0)  -->
<!DOCTYPE svg PUBLIC "-//W3C//DTD SVG 1.1//EN" "http://www.w3.org/Graphics/SVG/1.1/DTD/svg11.dtd">
<svg version="1.1" id="Layer_1" xmlns="http://www.w3.org/2000/svg" xmlns:xlink="http://www.w3.org/1999/xlink" x="0px" y="0px"
	 width="800px" height="197.518px" viewBox="-278.743 -82.328 800 197.518" enable-background="new -278.743 -82.328 800 197.518"
	 xml:space="preserve">
<g>
	<g>
		<g>
			<defs>
				<polyline id="SVGID_1_" points="-273.292,-82.328 521.793,-82.328 521.793,110.465 -273.292,110.465 -273.292,-82.328 				"/>
			</defs>
			<clipPath id="SVGID_2_">
				<use xlink:href="#SVGID_1_"  overflow="visible"/>
			</clipPath>
			<path clip-path="url(#SVGID_2_)" fill="#EE3341" d="M520.888,109.984c1.392,0,2.515-1.275,2.515-2.86V87.247
				c0-1.591-1.123-2.873-2.515-2.873h-23.146c-5.423,0-19.742-0.314-27.617-4.734c-2.575-1.458-4.521-3.093-5.799-5.042
				c-1.181-1.796-1.776-4.061-1.776-6.864V-79.173c0-1.579-1.125-2.865-2.504-2.865h-50.59c-1.38,0-2.485,1.286-2.485,2.865V63.054
				c0,7.52,1.496,14.482,4.341,19.326c3.088,5.233,7.798,10.532,14.03,14.424c19.089,11.882,52.879,13.252,66.013,13.177h29.533"/>
		</g>
	</g>
</g>
<path fill="#EE3341" d="M-156.478,109.139c1.393,0,2.503-1.275,2.503-2.873V-56.036h61.344c1.384,0,2.501-1.29,2.501-2.865v-19.879
	c0-1.583-1.117-2.866-2.501-2.866h-178.154c-1.383,0-2.507,1.282-2.507,2.866v19.879c0,1.572,1.124,2.865,2.507,2.865h61.223
	v162.302c0,1.598,1.117,2.873,2.507,2.873H-156.478"/>
<path fill="#EE3341" d="M10.575,14.09c0,2.799-0.602,5.061-1.779,6.875c-1.275,1.939-3.215,3.576-5.792,5.031
	c-7.883,4.419-22.197,4.741-27.621,4.741H-68.73V8.579c0-2.8,0.599-5.061,1.776-6.875c1.275-1.938,3.215-3.583,5.789-5.027
	c7.883-4.416,22.201-4.735,27.618-4.735h8.933c5.423,0,19.738,0.319,27.621,4.735c2.571,1.444,4.517,3.089,5.792,5.027
	c1.182,1.814,1.78,4.075,1.78,6.875v5.511 M65.331,109.132c1.383,0,2.5-1.282,2.5-2.866V86.39c0-1.583-1.114-2.873-2.5-2.873H-33.48
	c-5.42,0-19.741-0.314-27.617-4.742c-2.571-1.447-4.512-3.092-5.796-5.031c-1.171-1.799-1.783-4.067-1.783-6.856V56.323h50.397
	c13.136,0,47.797-0.767,66.883-11.481c6.233-3.499,10.947-7.475,14.023-12.188c6.563-10.034,7.146-30.115,0.048-40.961
	c-3.08-4.712-7.787-8.692-14.027-12.188C29.561-31.21-5.097-31.979-18.234-31.979h-21.624c-13.14,0-47.794,1.165-66.876,11.876
	c-6.237,3.506-10.947,8.274-14.027,12.994c-2.853,4.356-4.319,10.637-4.319,17.402v56.553c0,6.783,1.466,13.057,4.319,17.425
	c3.08,4.713,7.79,9.472,14.027,12.979c19.085,10.711,53.743,11.963,66.876,11.881H65.331L65.331,109.132z"/>
<path fill="#EE3341" d="M321.849,69.6c0,2.792-0.614,5.053-1.79,6.859c-1.271,1.946-3.218,3.591-5.795,5.038
	c-7.88,4.419-22.197,4.734-27.618,4.734h-8.933c-5.424,0-19.741-0.315-27.621-4.734c-2.566-1.447-4.507-3.092-5.795-5.038
	c-1.168-1.807-1.78-4.067-1.78-6.859v-6.52c0-2.793,0.612-5.061,1.78-6.86c1.288-1.952,3.222-3.591,5.795-5.034
	c7.88-4.423,22.197-4.745,27.621-4.745h44.129L321.849,69.6 M373.872-6.086c-3.083-4.72-7.796-9.491-14.033-12.986
	C340.755-29.784,306.1-31.033,292.967-30.96l-26.994-0.008l-0.017,0.008h-59.294c-1.384,0-2.514,1.301-2.514,2.876v19.868
	c0,1.583,1.13,2.876,2.514,2.876h79.933c5.407,0,19.729,0.308,27.617,4.735c2.571,1.44,4.516,3.085,5.793,5.042
	c1.175,1.795,1.792,4.06,1.792,6.852v9.546H271.39c-13.14,0-47.791,0.765-66.879,11.483c-6.234,3.508-10.947,7.483-14.034,12.195
	c-7.002,10.715-7.05,31.222-0.041,41.947c3.083,4.727,7.796,8.695,14.029,12.195c19.079,10.712,53.747,11.486,66.874,11.486h21.633
	c13.141,0,47.789-1.173,66.874-11.882c6.236-3.496,10.95-8.268,14.033-12.979c2.85-4.36,4.31-10.643,4.31-17.421V11.331
	C378.185,4.555,376.722-1.726,373.872-6.086z"/>
<path fill="#EE3341" d="M492.28-71.218h1.245l2.466,4.478h1.944l-2.636-4.614c1.707-0.212,2.476-1.484,2.476-3.03
	c0-1.968-1.032-3.189-3.043-3.189h-4.164v10.833h1.709v-4.478 M492.28-72.881v-3.031h1.932c0.935,0,1.844,0.07,1.844,1.393
	c0,1.59-0.807,1.638-1.976,1.638H492.28"/>
<path fill="#EE3341" d="M493.881-63.977c-3.96,0-7.181-3.676-7.181-8.231c0-4.558,3.221-8.23,7.181-8.23
	c3.97,0,7.174,3.672,7.174,8.23C501.059-67.656,497.851-63.977,493.881-63.977 M493.881-82.328c-4.863,0-8.83,4.529-8.83,10.121
	c0,5.567,3.967,10.122,8.83,10.122c4.889,0,8.847-4.555,8.847-10.122C502.731-77.802,498.773-82.328,493.881-82.328"/>
<path fill="#EE3341" d="M91.539,106.273c0,1.583,1.095,2.865,2.478,2.865h50.516c1.38,0,2.497-1.282,2.497-2.865V-5.339h30.909
	c1.389,0,2.507-1.293,2.507-2.876v-19.868c0-1.576-1.118-2.876-2.507-2.876h-30.909v-8.831c0-2.8,0.599-5.065,1.78-6.867
	c1.274-1.943,3.221-3.591,5.795-5.032c7.883-4.423,23.145-4.746,28.571-4.746h22.194c1.383,0,2.521-1.282,2.521-2.861v-19.88
	c0-1.575-1.138-2.861-2.521-2.861h-28.568c-13.133-0.081-47.798,1.293-66.879,13.188c-6.231,3.884-10.947,9.179-14.027,14.416
	c-2.853,4.841-4.344,11.807-4.344,21.085v139.623"/>
</svg>
