<?xml version="1.0" encoding="utf-8"?>
<!-- Generator: Adobe Illustrator 16.0.0, SVG Export Plug-In . SVG Version: 6.00 Build 0)  -->
<!DOCTYPE svg PUBLIC "-//W3C//DTD SVG 1.1//EN" "http://www.w3.org/Graphics/SVG/1.1/DTD/svg11.dtd">
<svg version="1.1" id="Layer_1" xmlns="http://www.w3.org/2000/svg" xmlns:xlink="http://www.w3.org/1999/xlink" x="0px" y="0px"
	 width="800px" height="276.569px" viewBox="-165.788 -75.03 800 276.569" enable-background="new -165.788 -75.03 800 276.569"
	 xml:space="preserve">
<path fill="#00529B" d="M-74.714-45.222c0,8.858-3.977,15.843-11.931,20.947c-8.813,5.727-21.764,8.591-38.853,8.591
	c-3.44,0-6.772-0.178-9.994-0.532v35.442h-28.053v-88.882c10.534-3.58,23.542-5.375,39.016-5.375c16.981,0,29.77,2.91,38.371,8.728
	C-78.528-61.108-74.714-54.08-74.714-45.222z M-102.604-45.354c0-11.727-7.309-17.586-21.925-17.586
	c-4.299,0-7.954,0.445-10.961,1.339v33.3c2.899,0.444,6.126,0.667,9.673,0.667C-110.342-27.634-102.604-33.541-102.604-45.354z
	 M57.557,19.227H24.99L-8.218-22.526l-0.321,41.753h-28.214v-88.882c11.069-3.58,23.967-5.375,38.692-5.375
	c16.657,0,29.339,2.641,38.043,7.924c8.274,5.013,12.414,11.992,12.414,20.944c0,6.354-2.847,11.68-8.545,15.977
	c-5.697,4.207-13.326,6.802-22.894,7.788L57.557,19.227z M24.025-45.222c0-6.088-1.774-10.56-5.322-13.425
	c-3.439-2.867-9.027-4.297-16.764-4.297c-3.763,0-7.259,0.536-10.478,1.61v33.971c2.15,0.445,4.837,0.669,8.061,0.669
	C15.858-26.694,24.025-32.868,24.025-45.222z M194.66-26.961c0,14.053-4.136,25.334-12.414,33.833
	c-9.135,9.49-22.301,14.227-39.496,14.227c-17.196,0-30.416-4.737-39.66-14.227c-8.274-8.502-12.412-19.78-12.412-33.833
	c0-13.963,4.137-25.247,12.412-33.833c9.244-9.489,22.463-14.235,39.66-14.235c17.195,0,30.361,4.746,39.496,14.235
	C190.524-52.204,194.66-40.925,194.66-26.961z M165.16-27.634c0-9.489-1.559-17.095-4.674-22.826
	c-3.87-7.071-9.781-10.606-17.735-10.606c-8.06,0-14.025,3.535-17.895,10.606c-3.224,5.818-4.837,13.43-4.837,22.826
	c0,22.199,7.576,33.296,22.732,33.296C157.693,5.663,165.16-5.431,165.16-27.634z M305.372-59.536h-38.69v24.569h34.178v13.558
	h-34.178v40.412h-28.374v-92.369h67.068L305.372-59.536L305.372-59.536z M376.26,19.227h-28.372V-37.5h28.372V19.227z
	 M496.24,19.227h-64.966v-92.375h28.532V5.394h36.434V19.227z M634.154-26.961c0,14.053-4.138,25.334-12.407,33.833
	c-9.138,9.49-22.301,14.227-39.499,14.227c-17.2,0-30.418-4.737-39.659-14.227c-8.276-8.502-12.415-19.78-12.415-33.833
	c0-13.963,4.141-25.247,12.415-33.833c9.241-9.489,22.459-14.235,39.659-14.235c17.198,0,30.361,4.746,39.499,14.235
	C630.016-52.204,634.154-40.925,634.154-26.961z M604.653-27.634c0-9.489-1.554-17.095-4.673-22.826
	c-3.866-7.071-9.781-10.606-17.73-10.606c-8.061,0-14.025,3.535-17.897,10.606c-3.222,5.818-4.835,13.43-4.835,22.826
	c0,22.199,7.575,33.296,22.732,33.296C597.186,5.663,604.653-5.431,604.653-27.634z M376.26-51.049h-28.372v-22.316h28.372V-51.049z
	"/>
<line fill="none" stroke="#F15F22" stroke-width="5.6103" stroke-linecap="round" stroke-miterlimit="3.8636" x1="-163.912" y1="83.99" x2="634.512" y2="83.99"/>
<path fill="#00529B" d="M-21.683,182.369v-21.813c-0.685-0.245-1.457-0.369-2.322-0.369c-4.283,0-6.425,3.789-6.425,11.367
	c0,7.538,2.052,11.307,6.155,11.307C-23.123,182.86-22.26,182.697-21.683,182.369z M-13.316,186.486
	c-2.665,1.641-6.368,2.459-11.119,2.459c-4.607,0-8.153-1.497-10.635-4.486c-2.448-3.033-3.672-7.19-3.672-12.478
	c0-4.873,1.046-8.865,3.131-11.981c2.304-3.438,5.526-5.161,9.665-5.161c1.548,0,2.969,0.185,4.266,0.554v-15.302h8.365v46.396
	H-13.316z"/>
<path fill="#00529B" d="M10.116,182.984V170.94c-2.628,0.286-4.536,0.818-5.721,1.597c-1.765,1.146-2.647,3.011-2.647,5.594
	c0,3.685,1.765,5.529,5.291,5.529C8.226,183.659,9.254,183.435,10.116,182.984z M17.997,186.486
	c-2.665,1.641-6.46,2.459-11.392,2.459c-8.492,0-12.742-3.482-12.742-10.445c0-4.223,1.907-7.332,5.721-9.34
	c2.411-1.271,5.922-2.148,10.528-2.643v-1.534c0-2.95-1.71-4.424-5.131-4.424c-2.447,0-4.965,0.678-7.557,2.03l-1.836-5.468
	c3.562-1.678,7.216-2.521,10.96-2.521c7.632,0,11.444,4.035,11.444,12.105L17.997,186.486L17.997,186.486z"/>
<path fill="#00529B" d="M51.365,155.211L38.3,201.539h-8.855l4.644-13.212l-9.448-33.116h8.908l3.995,19.169
	c0.325,1.639,0.524,3.376,0.596,5.221h0.108c0.107-1.594,0.379-3.339,0.811-5.221l4.429-19.169H51.365L51.365,155.211z"/>
<path fill="#00529B" d="M72.852,182.984V170.94c-2.628,0.286-4.536,0.818-5.722,1.597c-1.765,1.146-2.647,3.011-2.647,5.594
	c0,3.685,1.765,5.529,5.292,5.529C70.963,183.659,71.987,183.435,72.852,182.984z M80.734,186.486
	c-2.663,1.641-6.46,2.459-11.392,2.459c-8.492,0-12.742-3.482-12.742-10.445c0-4.223,1.907-7.332,5.721-9.34
	c2.412-1.271,5.922-2.148,10.528-2.643v-1.534c0-2.95-1.709-4.424-5.13-4.424c-2.449,0-4.967,0.678-7.56,2.03l-1.834-5.468
	c3.562-1.678,7.215-2.521,10.959-2.521c7.63,0,11.445,4.035,11.445,12.105v19.78H80.734L80.734,186.486z"/>
<path fill="#00529B" d="M114.533,188.327h-8.423v-23.161c0-3.073-1.44-4.609-4.318-4.609c-1.115,0-2.304,0.226-3.563,0.677v27.098
	h-8.421v-31.273c3.206-1.641,7.272-2.461,12.203-2.461c8.348,0,12.527,3.504,12.527,10.51v23.225h-0.004V188.327z"/>
<rect x="123.764" y="155.211" fill="#00529B" width="8.42" height="33.116"/>
<polygon fill="#00529B" points="167.874,188.327 158.425,188.327 150.057,171.616 149.951,171.616 149.951,188.327 141.581,188.327 
	141.581,140.095 149.951,140.095 149.951,169.834 150.057,169.834 158.21,155.211 166.633,155.211 157.508,170.08 "/>
<rect x="175.433" y="140.095" fill="#00529B" width="8.42" height="48.232"/>
<rect x="193.788" y="155.211" fill="#00529B" width="8.422" height="33.116"/>
<path fill="#00529B" d="M241.948,168.729c0-5.653-1.602-8.48-4.808-8.48c-2.12,0-3.634,1.172-4.532,3.504
	c-0.684,1.801-0.955,4.035-0.811,6.7L241.948,168.729z M249.774,172.292l-17.436,2.825c0.575,4.836,2.915,7.252,7.019,7.252
	c3.022,0,5.541-0.596,7.559-1.786l1.888,5.96c-2.807,1.597-6.28,2.396-10.42,2.396c-4.533,0-8.043-1.618-10.527-4.854
	c-2.339-3.033-3.511-7.166-3.511-12.41c0-5.042,1.062-9.075,3.186-12.105c2.305-3.319,5.615-4.975,9.936-4.975
	c4.459,0,7.736,1.738,9.824,5.221C249.093,162.852,249.918,167.008,249.774,172.292z"/>
<path fill="#00529B" d="M281.576,155.211l-9.231,33.116h-8.153l-9.34-33.116h8.91l4.156,19.044c0.395,1.761,0.609,3.44,0.647,5.04
	h0.108c0.107-1.596,0.358-3.276,0.753-5.04l4.27-19.044H281.576L281.576,155.211z"/>
<path fill="#00529B" d="M319.15,182.984V170.94c-2.625,0.286-4.532,0.818-5.721,1.597c-1.764,1.146-2.647,3.011-2.647,5.594
	c0,3.685,1.765,5.529,5.292,5.529C317.259,183.659,318.287,183.435,319.15,182.984z M327.032,186.486
	c-2.665,1.641-6.458,2.459-11.395,2.459c-8.491,0-12.74-3.482-12.74-10.445c0-4.223,1.907-7.332,5.722-9.34
	c2.412-1.271,5.923-2.148,10.527-2.643v-1.534c0-2.95-1.71-4.424-5.129-4.424c-2.45,0-4.965,0.678-7.56,2.03l-1.839-5.468
	c3.567-1.678,7.22-2.521,10.967-2.521c7.628,0,11.443,4.035,11.443,12.105L327.032,186.486L327.032,186.486z"/>
<rect x="336.803" y="140.095" fill="#00529B" width="8.422" height="48.232"/>
<path fill="#00529B" d="M371.033,168.729c0-5.653-1.6-8.48-4.803-8.48c-2.123,0-3.633,1.172-4.534,3.504
	c-0.684,1.801-0.953,4.035-0.809,6.7L371.033,168.729z M378.864,172.292l-17.437,2.825c0.576,4.836,2.915,7.252,7.018,7.252
	c3.024,0,5.542-0.596,7.56-1.786l1.891,5.96c-2.811,1.597-6.282,2.396-10.422,2.396c-4.536,0-8.043-1.618-10.526-4.854
	c-2.339-3.033-3.509-7.166-3.509-12.41c0-5.042,1.061-9.075,3.185-12.105c2.305-3.319,5.616-4.975,9.931-4.975
	c4.464,0,7.74,1.738,9.831,5.221C378.178,162.852,379.01,167.008,378.864,172.292z"/>
<path fill="#00529B" d="M402.616,187.899c-1.115,0.613-2.5,0.921-4.155,0.921c-2.664,0-4.79-0.84-6.368-2.517
	c-1.584-1.724-2.381-4.078-2.381-7.07v-17.818h-3.182v-6.206h3.182v-7.066l8.423-2.459v9.521h4.481v6.205h-4.481v17.083
	c0,2.579,0.899,3.87,2.7,3.87c0.503,0,1.102-0.122,1.781-0.367V187.899L402.616,187.899z"/>
<rect x="412.661" y="140.095" fill="#00529B" width="8.42" height="48.232"/>
<path fill="#00529B" d="M447.972,168.729c0-5.653-1.603-8.48-4.808-8.48c-2.122,0-3.635,1.172-4.534,3.504
	c-0.681,1.801-0.953,4.035-0.811,6.7L447.972,168.729z M455.798,172.292l-17.44,2.825c0.58,4.836,2.919,7.252,7.02,7.252
	c3.022,0,5.542-0.596,7.562-1.786l1.886,5.96c-2.805,1.597-6.279,2.396-10.414,2.396c-4.536,0-8.05-1.618-10.532-4.854
	c-2.34-3.033-3.511-7.166-3.511-12.41c0-5.042,1.063-9.075,3.188-12.105c2.303-3.319,5.613-4.975,9.935-4.975
	c4.457,0,7.737,1.738,9.824,5.221C455.113,162.852,455.94,167.008,455.798,172.292z"/>
<path fill="#00529B" d="M479.988,154.717l-1.571,6.76c-1.007-0.493-2.047-0.737-3.131-0.737c-0.938,0-1.761,0.184-2.482,0.552
	v27.036h-8.419v-31.273c2.914-1.64,6.964-2.461,12.146-2.461C477.176,154.596,478.325,154.637,479.988,154.717z"/>
<path fill="#00529B" d="M495.584,188.327h-8.416v-33.114h8.416V188.327z M495.858,145.688c0,1.349-0.453,2.437-1.351,3.255
	c-0.899,0.822-1.944,1.231-3.131,1.231c-1.189,0-2.236-0.409-3.133-1.231c-0.899-0.818-1.352-1.902-1.352-3.255
	c0-1.314,0.452-2.38,1.352-3.194c0.937-0.857,1.978-1.292,3.133-1.292c1.187,0,2.231,0.435,3.131,1.292
	C495.407,143.308,495.858,144.373,495.858,145.688z"/>
</svg>
