<?xml version="1.0" encoding="utf-8"?>
<!-- Generator: Adobe Illustrator 16.0.0, SVG Export Plug-In . SVG Version: 6.00 Build 0)  -->
<!DOCTYPE svg PUBLIC "-//W3C//DTD SVG 1.1//EN" "http://www.w3.org/Graphics/SVG/1.1/DTD/svg11.dtd">
<svg version="1.1" id="Layer_1" xmlns="http://www.w3.org/2000/svg" xmlns:xlink="http://www.w3.org/1999/xlink" x="0px" y="0px"
	 width="800px" height="196.58px" viewBox="0 0 800 196.58" enable-background="new 0 0 800 196.58" xml:space="preserve">
<path fill-rule="evenodd" clip-rule="evenodd" fill="#004FA3" d="M2.538,58.755h26.688v79.07H2.538V58.755z M54.572,58.755h16.542
	L53.777,89.359l27.832,48.466H52.127l-22.901-37.487L54.572,58.755z M250.5,58.755h26.688v79.07H250.5V58.755z M302.535,58.755
	h16.542L301.74,89.359l27.833,48.466H300.09l-22.901-37.487L302.535,58.755z M104.065,83.048c0-7.95,5.298-14.395,11.861-14.395
	c6.564,0,11.885,6.444,11.885,14.395l0.022,30.485c0,7.95-5.343,14.394-11.907,14.394c-6.563,0-11.885-6.443-11.885-14.394
	L104.065,83.048z M75.516,98.29c0-21.834,18.096-39.534,40.421-39.534s40.422,17.7,40.422,39.534
	c0,21.836-18.097,39.535-40.422,39.535S75.516,120.126,75.516,98.29z M346.872,89.346v48.479h-14.976V70.2
	c0-6.321,7.371-11.443,16.459-11.443c7.339,0,13.554,3.342,15.675,7.958l11.339,26.302l11.229-26.118
	c2.136-4.813,8.108-8.143,15.16-8.143c8.741,0,15.833,5.124,15.833,11.444v67.625h-28.055V88.702l-19.034,49.123h-3.125
	L346.872,89.346z M462.454,111.619l-9.682-29.297l-9.652,29.297H462.454z M422.35,137.825l23.378-70.957
	c1.151-4.607,6.778-8.105,13.547-8.105c6.833,0,12.501,3.563,13.577,8.235l24.732,70.827h-26.47l-4.883-14.781h-26.875l-4.87,14.781
	H422.35z M535.199,125.04h31.146v12.785h-60.88c-1.683,0-3.045-1.743-3.045-3.894c0-0.707,0.142-1.371,0.4-1.941l28.281-59.814
	h-28.751v-13.42H550.6c6.295,0,11.399,3.699,11.399,8.263c0,1.104-0.299,2.158-0.841,3.121L535.199,125.04z M163.23,58.755h27.74
	l13.787,0.001c19.277,0,27.308,14.326,27.308,22.669v1.011l0.046,1.887c0,10.589-5.518,16.793-14.317,19.133l23.384,34.368h-31.179
	l-18.206-39.143l3.095-0.03c0.74-0.084,2.317-0.431,2.317-0.431c5.265-1.401,8.544-6.613,8.544-12.948l-0.028-1.131v-0.605
	c0-4.892-3.747-12.365-14.751-12.663v66.95h-27.74V58.755z M665.342,65.126l11.855,5.15c-2.98,4.466-4.785,10.293-4.785,16.669
	c0,14.056,8.768,25.451,19.585,25.451l0.671-0.014v1.34v53.998h-41.131c0,0,1.194-10.879,1.565-14.517c0,0,2.232-10.89,2.403-21.47
	c0.143-8.696-0.465-9.273-6.039-11.263c-16.315-5.825-28.296-21.307-28.296-39.617c0-23.24,19.104-42.081,42.67-42.081
	c15.365,0,25.491,9.886,34.131,9.977c8.64-0.091,18.767-9.977,34.134-9.977c23.564,0,42.667,18.84,42.667,42.081
	c0,18.31-11.979,33.792-28.296,39.617c-5.574,1.989-6.182,2.566-6.039,11.263c0.172,10.58,2.404,21.47,2.404,21.47
	c0.37,3.638,1.565,14.517,1.565,14.517h-41.131v-53.998v-1.34l0.673,0.014c10.814,0,19.582-11.395,19.582-25.451
	c0-6.375-1.802-12.203-4.782-16.669l11.855-5.15c3.745,6.105,5.983,13.84,5.983,22.256c0,16.688-8.896,30.704-20.798,34.63
	l0.019,0.621l-0.021,32.75h14.066c0,0-1.488-12.207-1.671-23.451c-0.186-11.244,1.518-18.501,14.289-23.063
	c11.604-4.143,20.044-15.146,20.044-28.016c0-16.426-13.502-29.742-30.158-29.742c-4.008,0-7.011,0.9-11.321,2.176
	c-5.881,1.743-10.1,4.987-14.33,6.438c-4.229,1.451-8.735,1.36-8.735,1.36s-4.506,0.09-8.735-1.36
	c-4.229-1.45-8.447-4.694-14.33-6.438c-4.31-1.276-7.313-2.176-11.32-2.176c-16.657,0-30.157,13.316-30.157,29.742
	c0,12.87,8.439,23.873,20.042,28.016c12.774,4.562,14.475,11.818,14.291,23.063c-0.185,11.244-1.67,23.451-1.67,23.451h14.065
	l-0.022-32.75l0.019-0.621c-11.901-3.926-20.797-17.941-20.797-34.63C659.356,78.966,661.595,71.231,665.342,65.126z M598.307,98.29
	c0-54.285,44.622-98.29,99.665-98.29c55.046,0,99.665,44.005,99.665,98.29c0,54.285-44.619,98.29-99.665,98.29
	C642.929,196.58,598.307,152.575,598.307,98.29z M608.314,98.29c0-48.833,40.142-88.419,89.657-88.419
	c49.517,0,89.657,39.586,89.657,88.419c0,48.834-40.141,88.421-89.657,88.421C648.456,186.711,608.314,147.124,608.314,98.29z"/>
</svg>
