<?xml version="1.0" encoding="utf-8"?>
<!-- Generator: Adobe Illustrator 16.0.0, SVG Export Plug-In . SVG Version: 6.00 Build 0)  -->
<!DOCTYPE svg PUBLIC "-//W3C//DTD SVG 1.1//EN" "http://www.w3.org/Graphics/SVG/1.1/DTD/svg11.dtd">
<svg version="1.1" id="Capa_1" xmlns="http://www.w3.org/2000/svg" xmlns:xlink="http://www.w3.org/1999/xlink" x="0px" y="0px"
	 width="800px" height="685.056px" viewBox="0 0 800 685.056" enable-background="new 0 0 800 685.056" xml:space="preserve">
<path fill="#AB002F" d="M396.846,611.142c-0.122-40.847,31.77-73.799,71.608-73.868c38.864,0.069,70.783,33.021,71.559,73.868
	c-0.775,40.39-32.694,73.342-71.559,73.914C428.615,684.483,396.724,651.531,396.846,611.142L396.846,611.142z M468.454,657.824
	c21.505-0.343,39.308-21.202,39.529-46.683c-0.222-25.973-18.024-46.83-39.529-46.683c-22.436-0.147-40.283,20.71-39.573,46.683
	C428.171,636.622,446.019,657.481,468.454,657.824"/>
<polyline fill="#AB002F" points="621.011,568.35 621.011,681.165 590.894,681.165 590.894,568.35 547.551,568.35 547.551,543.109 
	662.468,543.109 662.468,568.35 621.011,568.35 "/>
<path fill="#AB002F" d="M698.24,650.01L698.24,650.01l-11.272,31.155h-35.772l56.5-138.056h37.655L800,681.165h-35.771
	l-11.306-31.155H698.24L698.24,650.01z M726.54,626.702h18.811L726.54,576.13l-18.845,50.572H726.54"/>
<polyline fill="#AB002F" points="67.173,568.35 67.173,681.165 37.033,681.165 37.033,568.35 -4.402,568.35 -4.402,543.109 
	108.631,543.109 108.631,568.35 67.173,568.35 "/>
<path fill="#AB002F" d="M116.169,611.142c0.055-40.847,31.936-73.799,71.55-73.868c39.105,0.069,71.03,33.021,71.606,73.868
	c-0.576,40.39-32.5,73.342-71.606,73.914C148.105,684.483,116.224,651.531,116.169,611.142L116.169,611.142z M187.719,657.824
	c21.76-0.343,39.549-21.202,39.571-46.683c-0.022-25.973-17.811-46.83-39.571-46.683c-22.214-0.147-40.036,20.71-39.515,46.683
	C147.683,636.622,165.505,657.481,187.719,657.824"/>
<polyline fill="#AB002F" points="327.143,681.165 342.197,681.165 342.197,628.648 394.961,543.109 361.063,543.109 
	327.143,601.417 295.108,543.109 259.325,543.109 312.09,628.648 312.09,681.165 327.143,681.165 "/>
<path d="M19.852,239.219c0,131.726,165.939,238.901,369.899,238.901c203.958,0,369.9-107.175,369.9-238.901
	c0-131.738-165.942-238.898-369.9-238.898C185.791,0.321,19.852,107.481,19.852,239.219z M31.203,239.219
	c0-125.25,160.84-227.159,358.548-227.159c197.706,0,358.549,101.909,358.549,227.159c0,125.284-160.843,227.185-358.549,227.185
	C192.042,466.404,31.203,364.503,31.203,239.219z"/>
<path d="M354.8,43.751c-86.573,5.458-149.456,29.142-160.175,60.344c-1.109,3.238-1.663,6.522-1.663,9.794
	c0,5.263,1.441,10.526,4.301,15.561c12.016,21.133,49.314,38.559,102.389,47.907l5.62,0.949l0.942-5.79
	c8.712-54.852,27.834-97.987,52.487-118.353l13.967-11.557L354.8,43.751z M207.063,123.546c-1.851-3.25-2.76-6.454-2.76-9.611
	c0-1.991,0.333-3.936,1.02-5.916l0,0c8.181-23.833,63.758-44.657,134.757-51.374c-20.251,23.65-35.826,61.751-43.951,108.044
	C249.992,155.881,216.817,140.709,207.063,123.546z M194.625,104.095L194.625,104.095L194.625,104.095z"/>
<path d="M338.971,176.018l-1.108,6.374l6.263,0.492c14.854,1.144,30.207,1.762,45.614,1.762c15.419,0,30.784-0.618,45.637-1.762
	l6.252-0.492l-1.109-6.374c-8.535-49.496-27.534-79.063-50.769-79.063C366.495,96.955,347.506,126.521,338.971,176.018z
	 M389.751,108.672c15.885,0,30.55,24.554,38.276,62.884c-12.559,0.847-25.352,1.373-38.288,1.373
	c-12.914,0-25.716-0.526-38.265-1.373C359.179,133.226,373.867,108.672,389.751,108.672z"/>
<path d="M420.789,54.164c24.642,20.366,43.785,63.501,52.498,118.353l0.932,5.79l5.609-0.949
	c53.097-9.348,90.414-26.774,102.386-47.907c4.655-8.124,5.543-16.889,2.66-25.355c-10.719-31.202-73.599-54.886-160.172-60.344
	l-17.847-1.145L420.789,54.164z M439.445,56.646c70.977,6.716,126.551,27.575,134.71,51.374c0.709,1.979,1.042,3.925,1.042,5.916
	c0,3.158-0.932,6.361-2.738,9.611c-9.788,17.163-42.971,32.334-89.084,41.144C475.249,118.397,459.697,80.296,439.445,56.646z"/>
<path d="M139.846,127.093c-38.908,33.639-59.471,73.605-59.471,115.593c0,98.774,116.689,182.264,271.41,194.164l17.282,1.339
	l-13.158-11.602c-33.897-29.932-54.948-100.951-54.948-185.354l0.355-19.94l-4.745-0.995
	c-81.383-15.058-139.28-50.379-147.524-89.933l-1.973-9.497L139.846,127.093z M91.737,242.686c0-36.004,17.016-70.559,48.963-100.57
	c14.884,39.966,70.497,73.262,149.109,88.754c-0.1,4.574-0.188,10.363-0.188,10.363c0,78.258,17.991,145.845,47.665,182.31
	C196.31,408.017,91.737,332.009,91.737,242.686z"/>
<path d="M334.348,232.128l-0.033,2.125c0,78.453,23.833,137.642,55.436,137.642c31.593,0,55.425-59.188,55.425-137.642l-0.077-8.464
	l-6.098,0.538c-16.072,1.453-32.622,2.174-49.25,2.174c-16.627,0-33.199-0.721-49.229-2.174l-6.118-0.572L334.348,232.128z
	 M433.758,238.418c-0.854,72.996-23.134,121.771-44.007,121.771c-20.895,0-43.175-48.776-44.007-121.771
	c14.433,1.099,29.176,1.785,44.007,1.785C404.605,240.204,419.304,239.517,433.758,238.418z"/>
<path d="M630.433,130.365c-8.235,39.554-66.144,74.875-147.501,89.933l-4.767,0.915l0.376,20.02
	c0,84.403-21.062,155.422-54.947,185.354l-13.158,11.602l17.26-1.339c154.74-11.899,271.431-95.39,271.431-194.164
	c0-41.988-20.584-81.954-59.492-115.593l-7.205-6.225L630.433,130.365z M638.78,142.116c31.97,30.012,48.996,64.566,48.996,100.57
	c0,89.323-104.565,165.331-245.56,180.857c29.674-36.465,47.665-104.052,47.665-182.31c0,0-0.111-5.79-0.188-10.363
	C568.28,215.377,623.894,182.082,638.78,142.116z"/>
<linearGradient id="SVGID_1_" gradientUnits="userSpaceOnUse" x1="389.7515" y1="422.8682" x2="389.7515" y2="157.3304">
	<stop  offset="0" style="stop-color:#F0F3F5"/>
	<stop  offset="0.0561" style="stop-color:#E2E5E8"/>
	<stop  offset="0.1383" style="stop-color:#D4D8DD"/>
	<stop  offset="0.2425" style="stop-color:#CCD0D6"/>
	<stop  offset="0.44" style="stop-color:#CACED4"/>
	<stop  offset="0.568" style="stop-color:#B3B7BD"/>
	<stop  offset="0.8354" style="stop-color:#797C83"/>
	<stop  offset="1" style="stop-color:#52545C"/>
</linearGradient>
<path fill="url(#SVGID_1_)" d="M634.457,100.205c0.521,1.487,0.998,3.009,1.374,4.531c2.14,8.775,1.697,17.391-1.074,25.79
	c36.912,31.418,58.672,70.172,58.672,112.16c0,104.804-135.968,189.782-303.678,189.782c-167.724,0-303.678-84.978-303.678-189.782
	c0-41.954,21.783-80.742,58.651-112.16c-2.75-8.398-3.193-17.014-1.053-25.79c0.388-1.556,1.019-3.204,1.762-4.84
	c-50.37,37.037-80.909,85.584-80.909,138.751c0,116.085,145.598,210.182,325.227,210.182c179.604,0,325.228-94.097,325.228-210.182
	C714.979,185.595,684.562,137.162,634.457,100.205z"/>
<linearGradient id="SVGID_2_" gradientUnits="userSpaceOnUse" x1="389.7598" y1="220.5425" x2="389.7598" y2="76.6535">
	<stop  offset="0" style="stop-color:#F0F3F5"/>
	<stop  offset="0.0561" style="stop-color:#E2E5E8"/>
	<stop  offset="0.1383" style="stop-color:#D4D8DD"/>
	<stop  offset="0.2425" style="stop-color:#CCD0D6"/>
	<stop  offset="0.44" style="stop-color:#CACED4"/>
	<stop  offset="0.568" style="stop-color:#B3B7BD"/>
	<stop  offset="0.8354" style="stop-color:#797C83"/>
	<stop  offset="1" style="stop-color:#52545C"/>
</linearGradient>
<path fill="url(#SVGID_2_)" d="M434.934,177.048c-14.333,1.11-29.442,1.716-45.194,1.716c-15.74,0-30.838-0.606-45.171-1.716h-0.043
	l-9.367,7.025c17.281,1.556,35.527,2.437,54.593,2.437c19.066,0,37.312-0.881,54.604-2.437L434.934,177.048L434.934,177.048z
	 M601.059,103.409c-11.418-38.948-105.523-67.552-211.308-67.552c-105.761,0-199.87,28.604-211.287,67.552
	c-9.91,33.788,44.184,65.058,129.525,77.461l-7.416-9.314l0,0c-69.038-12.128-110.071-37.987-100.604-65.481
	c11.473-33.376,94.807-57.552,189.771-57.552c94.965,0,178.319,24.176,189.78,57.552c9.456,27.494-31.558,53.353-100.612,65.481l0,0
	l-7.394,9.314C556.829,168.466,610.958,137.196,601.059,103.409z"/>
<linearGradient id="SVGID_3_" gradientUnits="userSpaceOnUse" x1="436.7266" y1="192.9551" x2="348.3936" y2="118.8349">
	<stop  offset="0" style="stop-color:#F0F3F5"/>
	<stop  offset="0.0561" style="stop-color:#E2E5E8"/>
	<stop  offset="0.1383" style="stop-color:#D4D8DD"/>
	<stop  offset="0.2425" style="stop-color:#CCD0D6"/>
	<stop  offset="0.44" style="stop-color:#CACED4"/>
	<stop  offset="0.568" style="stop-color:#B3B7BD"/>
	<stop  offset="0.8354" style="stop-color:#797C83"/>
	<stop  offset="1" style="stop-color:#52545C"/>
</linearGradient>
<path fill="url(#SVGID_3_)" d="M344.68,177.048c7.926-45.458,25.119-73.868,45.06-73.868c19.964,0,37.146,28.409,45.083,73.868
	h0.155l9.268,6.945c-7.826-60.035-29.265-98.399-54.494-98.399c-25.251,0-46.679,38.364-54.494,98.399l9.268-6.945H344.68z"/>
<linearGradient id="SVGID_4_" gradientUnits="userSpaceOnUse" x1="445.6982" y1="319.3613" x2="316.8609" y2="244.9771">
	<stop  offset="0" style="stop-color:#F0F3F5"/>
	<stop  offset="0.0561" style="stop-color:#E2E5E8"/>
	<stop  offset="0.1383" style="stop-color:#D4D8DD"/>
	<stop  offset="0.2425" style="stop-color:#CCD0D6"/>
	<stop  offset="0.44" style="stop-color:#CACED4"/>
	<stop  offset="0.568" style="stop-color:#B3B7BD"/>
	<stop  offset="0.8354" style="stop-color:#797C83"/>
	<stop  offset="1" style="stop-color:#52545C"/>
</linearGradient>
<path fill="url(#SVGID_4_)" d="M447.061,218.009l-7.582,14.153l0,0c0,1.03,0.044,2.091,0.044,3.167
	c0,75.353-22.325,132.492-49.783,132.492c-27.479,0-49.76-57.14-49.76-132.492c0-1.19,0.022-2.366,0.044-3.51l-7.593-13.81
	c-0.222,5.652-0.333,11.373-0.333,17.24c0,85.433,25.806,150.147,57.652,150.147c31.848,0,57.675-64.715,57.675-150.147
	C447.426,229.382,447.282,223.661,447.061,218.009z"/>
<linearGradient id="SVGID_5_" gradientUnits="userSpaceOnUse" x1="345.2173" y1="6.165" x2="345.2173" y2="234.3826">
	<stop  offset="0" style="stop-color:#F0F3F5"/>
	<stop  offset="0.0561" style="stop-color:#E2E5E8"/>
	<stop  offset="0.1383" style="stop-color:#D4D8DD"/>
	<stop  offset="0.2425" style="stop-color:#CCD0D6"/>
	<stop  offset="0.44" style="stop-color:#CACED4"/>
	<stop  offset="0.568" style="stop-color:#B3B7BD"/>
	<stop  offset="0.8354" style="stop-color:#797C83"/>
	<stop  offset="1" style="stop-color:#52545C"/>
</linearGradient>
<path fill="url(#SVGID_5_)" d="M308.11,180.904c10.908-83.445,43.332-145.047,81.641-145.047
	c-41.069,0-76.076,54.577-89.068,135.859l7.316,9.188H308.11z"/>
<linearGradient id="SVGID_6_" gradientUnits="userSpaceOnUse" x1="434.2744" y1="6.165" x2="434.2744" y2="234.3826">
	<stop  offset="0" style="stop-color:#F0F3F5"/>
	<stop  offset="0.0561" style="stop-color:#E2E5E8"/>
	<stop  offset="0.1383" style="stop-color:#D4D8DD"/>
	<stop  offset="0.2425" style="stop-color:#CCD0D6"/>
	<stop  offset="0.44" style="stop-color:#CACED4"/>
	<stop  offset="0.568" style="stop-color:#B3B7BD"/>
	<stop  offset="0.8354" style="stop-color:#797C83"/>
	<stop  offset="1" style="stop-color:#52545C"/>
</linearGradient>
<path fill="url(#SVGID_6_)" d="M471.403,180.904h0.077l7.316-9.188c-12.97-81.282-47.998-135.859-89.046-135.859
	C428.061,35.856,460.507,97.459,471.403,180.904z"/>
<linearGradient id="SVGID_7_" gradientUnits="userSpaceOnUse" x1="436.9736" y1="4.2466" x2="436.9736" y2="385.1271">
	<stop  offset="0" style="stop-color:#F0F3F5"/>
	<stop  offset="0.0561" style="stop-color:#E2E5E8"/>
	<stop  offset="0.1383" style="stop-color:#D4D8DD"/>
	<stop  offset="0.2425" style="stop-color:#CCD0D6"/>
	<stop  offset="0.44" style="stop-color:#CACED4"/>
	<stop  offset="0.568" style="stop-color:#B3B7BD"/>
	<stop  offset="0.8354" style="stop-color:#797C83"/>
	<stop  offset="1" style="stop-color:#52545C"/>
</linearGradient>
<path fill="url(#SVGID_7_)" d="M483.896,226.018l-9.312-11.476h-0.077c0.521,9.119,0.82,18.387,0.82,27.8
	c0,114.037-38.321,206.486-85.576,206.486c52.986,0,94.444-85.745,94.444-206.486C484.195,236.816,484.084,231.396,483.896,226.018z
	"/>
<linearGradient id="SVGID_8_" gradientUnits="userSpaceOnUse" x1="342.5234" y1="4.2466" x2="342.5234" y2="385.1271">
	<stop  offset="0" style="stop-color:#F0F3F5"/>
	<stop  offset="0.0561" style="stop-color:#E2E5E8"/>
	<stop  offset="0.1383" style="stop-color:#D4D8DD"/>
	<stop  offset="0.2425" style="stop-color:#CCD0D6"/>
	<stop  offset="0.44" style="stop-color:#CACED4"/>
	<stop  offset="0.568" style="stop-color:#B3B7BD"/>
	<stop  offset="0.8354" style="stop-color:#797C83"/>
	<stop  offset="1" style="stop-color:#52545C"/>
</linearGradient>
<path fill="url(#SVGID_8_)" d="M304.198,242.343c0-9.414,0.299-18.682,0.809-27.8h-0.066l-9.334,11.441
	c-0.188,5.412-0.311,10.833-0.311,16.359c0,120.742,41.492,206.486,94.455,206.486C342.518,448.829,304.198,356.38,304.198,242.343z
	"/>
<path fill="#2D2F34" d="M634.757,130.526c14.111,12.013,26.017,25.125,35.328,39.05c-3.293-22.654-12.05-43.479-24.831-60.985
	c-3.514-2.86-7.094-5.686-10.797-8.386c0.521,1.487,0.998,3.009,1.374,4.531C637.971,113.512,637.528,122.127,634.757,130.526z"/>
<path fill="#2D2F34" d="M144.724,130.526c-2.75-8.398-3.193-17.014-1.053-25.79c0.388-1.556,1.019-3.204,1.762-4.84
	c-3.846,2.861-7.56,5.755-11.184,8.695c-12.759,17.506-21.516,38.331-24.83,60.985C118.729,155.651,130.613,142.539,144.724,130.526
	z"/>
<linearGradient id="SVGID_9_" gradientUnits="userSpaceOnUse" x1="389.7393" y1="6.1909" x2="389.7392" y2="472.2397">
	<stop  offset="0" style="stop-color:#F0F3F5"/>
	<stop  offset="0.2533" style="stop-color:#EDF0F3"/>
	<stop  offset="0.4056" style="stop-color:#E5E8EA"/>
	<stop  offset="0.5313" style="stop-color:#D7DADC"/>
	<stop  offset="0.6424" style="stop-color:#C3C5C9"/>
	<stop  offset="0.7439" style="stop-color:#A9ABAF"/>
	<stop  offset="0.8385" style="stop-color:#888B90"/>
	<stop  offset="0.9259" style="stop-color:#63656B"/>
	<stop  offset="1" style="stop-color:#3D3F46"/>
</linearGradient>
<path fill="url(#SVGID_9_)" d="M25.527,239.219c0-128.683,163.057-233.028,364.224-233.028
	c201.143,0,364.201,104.346,364.201,233.028c0,128.717-163.059,233.02-364.201,233.02
	C188.584,472.239,25.527,367.936,25.527,239.219z M389.751,448.829c179.604,0,325.228-94.097,325.228-210.182
	c0-116.097-145.623-210.228-325.228-210.228c-179.629,0-325.238,94.131-325.238,210.228
	C64.513,354.732,210.122,448.829,389.751,448.829z"/>
<linearGradient id="SVGID_10_" gradientUnits="userSpaceOnUse" x1="389.7622" y1="6.1636" x2="389.7622" y2="472.2451">
	<stop  offset="0" style="stop-color:#F0F3F5"/>
	<stop  offset="0.2533" style="stop-color:#EDF0F3"/>
	<stop  offset="0.4056" style="stop-color:#E5E8EA"/>
	<stop  offset="0.5313" style="stop-color:#D7DADC"/>
	<stop  offset="0.6424" style="stop-color:#C3C5C9"/>
	<stop  offset="0.7439" style="stop-color:#A9ABAF"/>
	<stop  offset="0.8385" style="stop-color:#888B90"/>
	<stop  offset="0.9259" style="stop-color:#63656B"/>
	<stop  offset="1" style="stop-color:#3D3F46"/>
</linearGradient>
<path fill="url(#SVGID_10_)" d="M304.198,242.343c0-112.847,38.32-206.486,85.553-206.486c47.255,0,85.576,93.639,85.576,206.486
	c0,114.037-38.321,206.486-85.576,206.486C342.496,448.829,304.198,356.38,304.198,242.343z M389.751,385.396
	c31.848,0,57.675-64.715,57.675-150.113c0-88.625-25.827-149.689-57.675-149.689c-31.847,0-57.652,61.064-57.652,149.689
	C332.099,320.682,357.904,385.396,389.751,385.396z"/>
<linearGradient id="SVGID_11_" gradientUnits="userSpaceOnUse" x1="389.7485" y1="6.2095" x2="389.7485" y2="472.2756">
	<stop  offset="0" style="stop-color:#F0F3F5"/>
	<stop  offset="0.2533" style="stop-color:#EDF0F3"/>
	<stop  offset="0.4056" style="stop-color:#E5E8EA"/>
	<stop  offset="0.5313" style="stop-color:#D7DADC"/>
	<stop  offset="0.6424" style="stop-color:#C3C5C9"/>
	<stop  offset="0.7439" style="stop-color:#A9ABAF"/>
	<stop  offset="0.8385" style="stop-color:#888B90"/>
	<stop  offset="0.9259" style="stop-color:#63656B"/>
	<stop  offset="1" style="stop-color:#3D3F46"/>
</linearGradient>
<path fill="url(#SVGID_11_)" d="M143.671,104.736c9.389-38.365,122.916-94.198,246.08-94.198
	c123.154,0,232.779,39.895,246.08,94.198c14.888,60.869-94.521,115.95-246.08,115.95
	C238.164,220.687,128.762,165.605,143.671,104.736z M389.751,35.856c-105.761,0-199.87,28.604-211.287,67.552
	c-12.793,43.627,81.139,83.101,211.287,83.101c130.171,0,224.088-39.474,211.308-83.101
	C589.641,64.461,495.535,35.856,389.751,35.856z"/>
<linearGradient id="SVGID_12_" gradientUnits="userSpaceOnUse" x1="389.7505" y1="102.8452" x2="389.7505" y2="235.6729">
	<stop  offset="0" style="stop-color:#CACED4"/>
	<stop  offset="1" style="stop-color:#52545C"/>
</linearGradient>
<path fill="url(#SVGID_12_)" d="M332.32,217.895l0.067,0.045l7.815,14.222c15.907,1.405,32.445,2.206,49.549,2.206
	c17.183,0,33.765-0.801,49.771-2.24l7.604-14.188l0.044-0.045c-18.29,1.796-37.467,2.792-57.42,2.792
	C369.798,220.687,350.61,219.691,332.32,217.895z M637.117,117.894c-1.951,43.525-66.764,82.083-162.565,96.614l0.032,0.035
	l9.345,11.522C577.669,208.673,639.335,165.95,637.117,117.894z M142.384,117.894c-2.216,48.102,59.446,90.779,153.167,108.171
	l9.367-11.522l0.022-0.035C209.125,199.977,144.357,161.418,142.384,117.894z"/>
</svg>
